<svg xmlns="http://www.w3.org/2000/svg" viewBox="0 0 1100 420">
  <!-- Edges -->
  <g stroke="#777" stroke-width="0.9" opacity="0.55">
    <!-- cluster left -->
    <line x1="60"  y1="120" x2="140" y2="60"/>
    <line x1="60"  y1="120" x2="130" y2="220"/>
    <line x1="60"  y1="120" x2="70"  y2="320"/>
    <line x1="140" y1="60"  x2="240" y2="100"/>
    <line x1="130" y1="220" x2="240" y2="100"/>
    <line x1="130" y1="220" x2="270" y2="230"/>
    <line x1="70"  y1="320" x2="130" y2="220"/>
    <line x1="70"  y1="320" x2="210" y2="360"/>
    <!-- cluster 2 -->
    <line x1="240" y1="100" x2="360" y2="60"/>
    <line x1="240" y1="100" x2="270" y2="230"/>
    <line x1="270" y1="230" x2="360" y2="60"/>
    <line x1="270" y1="230" x2="380" y2="190"/>
    <line x1="270" y1="230" x2="350" y2="330"/>
    <line x1="210" y1="360" x2="350" y2="330"/>
    <line x1="350" y1="330" x2="380" y2="190"/>
    <!-- cluster 3 -->
    <line x1="360" y1="60"  x2="480" y2="120"/>
    <line x1="380" y1="190" x2="480" y2="120"/>
    <line x1="380" y1="190" x2="500" y2="270"/>
    <line x1="350" y1="330" x2="500" y2="270"/>
    <line x1="480" y1="120" x2="560" y2="60"/>
    <line x1="480" y1="120" x2="580" y2="200"/>
    <line x1="500" y1="270" x2="580" y2="200"/>
    <line x1="500" y1="270" x2="550" y2="350"/>
    <!-- cluster 4 -->
    <line x1="560" y1="60"  x2="680" y2="110"/>
    <line x1="580" y1="200" x2="680" y2="110"/>
    <line x1="580" y1="200" x2="700" y2="260"/>
    <line x1="550" y1="350" x2="700" y2="260"/>
    <line x1="550" y1="350" x2="660" y2="370"/>
    <line x1="680" y1="110" x2="790" y2="70"/>
    <line x1="700" y1="260" x2="790" y2="70"/>
    <line x1="700" y1="260" x2="820" y2="200"/>
    <line x1="660" y1="370" x2="800" y2="340"/>
    <line x1="800" y1="340" x2="820" y2="200"/>
    <!-- cluster 5 -->
    <line x1="790" y1="70"  x2="920" y2="110"/>
    <line x1="820" y1="200" x2="920" y2="110"/>
    <line x1="820" y1="200" x2="950" y2="260"/>
    <line x1="800" y1="340" x2="950" y2="260"/>
    <line x1="920" y1="110" x2="1010" y2="70"/>
    <line x1="920" y1="110" x2="1040" y2="210"/>
    <line x1="950" y1="260" x2="1040" y2="210"/>
    <line x1="950" y1="260" x2="1020" y2="360"/>
    <line x1="1010" y1="70"  x2="1080" y2="130"/>
    <line x1="1040" y1="210" x2="1080" y2="130"/>
    <line x1="1040" y1="210" x2="1090" y2="290"/>
    <line x1="1020" y1="360" x2="1090" y2="290"/>
    <!-- long cross-cluster links -->
    <line x1="240" y1="100" x2="480" y2="120"/>
    <line x1="480" y1="120" x2="680" y2="110"/>
    <line x1="680" y1="110" x2="920" y2="110"/>
    <line x1="380" y1="190" x2="580" y2="200"/>
    <line x1="580" y1="200" x2="820" y2="200"/>
    <line x1="820" y1="200" x2="1040" y2="210"/>
  </g>
  <!-- Nodes — varied sizes for visual depth -->
  <g fill="#666">
    <circle cx="60"  cy="120" r="8"/>
    <circle cx="140" cy="60"  r="7"/>
    <circle cx="130" cy="220" r="10"/>
    <circle cx="70"  cy="320" r="7"/>
    <circle cx="240" cy="100" r="11"/>
    <circle cx="270" cy="230" r="8"/>
    <circle cx="210" cy="360" r="7"/>
    <circle cx="360" cy="60"  r="8"/>
    <circle cx="380" cy="190" r="10"/>
    <circle cx="350" cy="330" r="8"/>
    <circle cx="480" cy="120" r="11"/>
    <circle cx="500" cy="270" r="8"/>
    <circle cx="560" cy="60"  r="7"/>
    <circle cx="580" cy="200" r="10"/>
    <circle cx="550" cy="350" r="8"/>
    <circle cx="680" cy="110" r="11"/>
    <circle cx="700" cy="260" r="8"/>
    <circle cx="660" cy="370" r="7"/>
    <circle cx="790" cy="70"  r="8"/>
    <circle cx="820" cy="200" r="10"/>
    <circle cx="800" cy="340" r="8"/>
    <circle cx="920" cy="110" r="11"/>
    <circle cx="950" cy="260" r="8"/>
    <circle cx="1010" cy="70" r="7"/>
    <circle cx="1040" cy="210" r="10"/>
    <circle cx="1020" cy="360" r="8"/>
    <circle cx="1080" cy="130" r="8"/>
    <circle cx="1090" cy="290" r="7"/>
  </g>
</svg>
