<svg xmlns="http://www.w3.org/2000/svg" viewBox="0 0 720 440">
  <!-- Connection lines L1→L2 -->
  <g stroke="#777" stroke-width="0.9" opacity="0.55">
    <line x1="80" y1="80"  x2="240" y2="50"/>
    <line x1="80" y1="80"  x2="240" y2="130"/>
    <line x1="80" y1="80"  x2="240" y2="210"/>
    <line x1="80" y1="80"  x2="240" y2="290"/>
    <line x1="80" y1="80"  x2="240" y2="370"/>
    <line x1="80" y1="173" x2="240" y2="50"/>
    <line x1="80" y1="173" x2="240" y2="130"/>
    <line x1="80" y1="173" x2="240" y2="210"/>
    <line x1="80" y1="173" x2="240" y2="290"/>
    <line x1="80" y1="173" x2="240" y2="370"/>
    <line x1="80" y1="267" x2="240" y2="50"/>
    <line x1="80" y1="267" x2="240" y2="130"/>
    <line x1="80" y1="267" x2="240" y2="210"/>
    <line x1="80" y1="267" x2="240" y2="290"/>
    <line x1="80" y1="267" x2="240" y2="370"/>
    <line x1="80" y1="360" x2="240" y2="50"/>
    <line x1="80" y1="360" x2="240" y2="130"/>
    <line x1="80" y1="360" x2="240" y2="210"/>
    <line x1="80" y1="360" x2="240" y2="290"/>
    <line x1="80" y1="360" x2="240" y2="370"/>
  </g>
  <!-- Connection lines L2→L3 -->
  <g stroke="#777" stroke-width="0.9" opacity="0.55">
    <line x1="240" y1="50"  x2="420" y2="50"/>
    <line x1="240" y1="50"  x2="420" y2="130"/>
    <line x1="240" y1="50"  x2="420" y2="210"/>
    <line x1="240" y1="50"  x2="420" y2="290"/>
    <line x1="240" y1="50"  x2="420" y2="370"/>
    <line x1="240" y1="130" x2="420" y2="50"/>
    <line x1="240" y1="130" x2="420" y2="130"/>
    <line x1="240" y1="130" x2="420" y2="210"/>
    <line x1="240" y1="130" x2="420" y2="290"/>
    <line x1="240" y1="130" x2="420" y2="370"/>
    <line x1="240" y1="210" x2="420" y2="50"/>
    <line x1="240" y1="210" x2="420" y2="130"/>
    <line x1="240" y1="210" x2="420" y2="210"/>
    <line x1="240" y1="210" x2="420" y2="290"/>
    <line x1="240" y1="210" x2="420" y2="370"/>
    <line x1="240" y1="290" x2="420" y2="50"/>
    <line x1="240" y1="290" x2="420" y2="130"/>
    <line x1="240" y1="290" x2="420" y2="210"/>
    <line x1="240" y1="290" x2="420" y2="290"/>
    <line x1="240" y1="290" x2="420" y2="370"/>
    <line x1="240" y1="370" x2="420" y2="50"/>
    <line x1="240" y1="370" x2="420" y2="130"/>
    <line x1="240" y1="370" x2="420" y2="210"/>
    <line x1="240" y1="370" x2="420" y2="290"/>
    <line x1="240" y1="370" x2="420" y2="370"/>
  </g>
  <!-- Connection lines L3→L4 -->
  <g stroke="#777" stroke-width="0.9" opacity="0.55">
    <line x1="420" y1="50"  x2="620" y2="110"/>
    <line x1="420" y1="50"  x2="620" y2="220"/>
    <line x1="420" y1="50"  x2="620" y2="330"/>
    <line x1="420" y1="130" x2="620" y2="110"/>
    <line x1="420" y1="130" x2="620" y2="220"/>
    <line x1="420" y1="130" x2="620" y2="330"/>
    <line x1="420" y1="210" x2="620" y2="110"/>
    <line x1="420" y1="210" x2="620" y2="220"/>
    <line x1="420" y1="210" x2="620" y2="330"/>
    <line x1="420" y1="290" x2="620" y2="110"/>
    <line x1="420" y1="290" x2="620" y2="220"/>
    <line x1="420" y1="290" x2="620" y2="330"/>
    <line x1="420" y1="370" x2="620" y2="110"/>
    <line x1="420" y1="370" x2="620" y2="220"/>
    <line x1="420" y1="370" x2="620" y2="330"/>
  </g>
  <!-- Nodes -->
  <g fill="#666">
    <circle cx="80"  cy="80"  r="9"/>
    <circle cx="80"  cy="173" r="9"/>
    <circle cx="80"  cy="267" r="9"/>
    <circle cx="80"  cy="360" r="9"/>
    <circle cx="240" cy="50"  r="9"/>
    <circle cx="240" cy="130" r="9"/>
    <circle cx="240" cy="210" r="9"/>
    <circle cx="240" cy="290" r="9"/>
    <circle cx="240" cy="370" r="9"/>
    <circle cx="420" cy="50"  r="9"/>
    <circle cx="420" cy="130" r="9"/>
    <circle cx="420" cy="210" r="9"/>
    <circle cx="420" cy="290" r="9"/>
    <circle cx="420" cy="370" r="9"/>
    <circle cx="620" cy="110" r="9"/>
    <circle cx="620" cy="220" r="9"/>
    <circle cx="620" cy="330" r="9"/>
  </g>
</svg>
